<svg xmlns="http://www.w3.org/2000/svg" class="as-logo" role="img" aria-labelledby="logo-title">
  <title id="logo-title">Alan Shortis - Home</title>
  <path d="M39.3 2.8c-.5-.6-1.1-1.1-2-1.5-.9-.4-1.8-.6-2.9-.8-1-.1-2.1-.2-3.4-.2-2 0-3.8.2-5.3.7-1.5.4-2.7 1-3.7 1.7l-.1.1-.8-.8-.3-.2c-.6-.5-1.5-.9-2.5-1.2C17.2.2 16 0 14.6 0c-2 0-3.8.4-5.6 1.2-1.8.9-3.4 2-4.7 3.4C3 6.1 2 7.7 1.2 9.7c-.8 1.9-1.2 4-1.2 6.1 0 2.8.7 5.1 2.1 6.7 1.4 1.6 3.5 2.4 6.3 2.4.9 0 1.7-.1 2.5-.3.7-.2 1.4-.5 2.1-.9.8-.4 1.4-.8 1.9-1.2.4-.3.8-.7 1.3-1.1.1.2.1.3.2.5.3.6.8 1.1 1.6 1.6s1.8.9 3.1 1.3c1.3.3 3 .5 5 .5 2.2 0 4-.2 5.5-.6 1.4-.4 2.7-1 3.8-1.7 1-.7 1.7-1.6 2.3-2.6.5-1 .8-2.1.8-3.3 0-1.7-.5-3.2-1.6-4.2-1.1-1.1-2.7-2-4.9-2.7-.9-.3-1.7-.6-2.4-.8s-1.1-.5-1.6-.8c-.4-.3-.7-.6-.9-.9l-.1-.3-.1-.2c-.1-.3-.2-.8-.2-1.3v-.4c0-.1 0-.2.1-.3.1-.2.1-.4.2-.6.2-.5.6-1 1.1-1.4.9-.8 2-1.2 3.1-1.2l.5 1.8c.2.7.5 1.4.9 2.1.4.6.9 1.1 1.5 1.6s1.4.7 2.3.7c1.1 0 1.9-.3 2.6-.9.7-.6 1-1.4 1-2.3s-.2-1.6-.7-2.2zM19.6 6c-.3.6-.3.9-.4 1.5l-2.6 10.9c-.1.4-.3.7-.5 1.1-.5.5-1 .9-1.6 1.2-.7.4-1.4.7-2.2.7-.7 0-1.3-.1-1.8-.4-.5-.3-.9-.7-1.2-1.2-.3-.5-.5-1-.6-1.7-.1-.7-.2-1.4-.2-2.2 0-1.7.2-3.4.6-5 .4-1.6.9-3.1 1.6-4.3.7-1.3 1.5-2.3 2.4-3 .9-.7 1.8-1.1 2.9-1.1.7 0 1.3.1 1.7.3.4.2.8.5 1.1.9.2.3.5.7.6 1.1.1.5.2.9.2 1.2zm8.9 9.9c1.8.5 2.9 2.3 2.5 4.2-.2.9-.8 1.6-1.5 2.1-.3.2-.6.3-.9.5-.6.2-1.2.2-1.8.1-1.8-.5-2.9-2.4-2.5-4.2l.5-2.2c.1-.3.1-.7.2-.9l.1-.3.2.1c.1 0-.2-.1-.2-.1 0-.2 3.4.7 3.4.7z"/>
</svg>
