<?xml version="1.0" encoding="UTF-8"?><!DOCTYPE svg PUBLIC "-//W3C//DTD SVG 1.1//EN" "http://www.w3.org/Graphics/SVG/1.1/DTD/svg11.dtd"><svg xmlns="http://www.w3.org/2000/svg"><symbol id="icon-codepen" viewBox="0 0 79 79"><path d="M19.3 36v7l5.2-3.5zM37.4 30.9v-9.8L21 32.1l7.3 4.9zM58.1 32.1l-16.5-11v9.8l9.1 6.1zM21 46.9l16.4 11v-9.8L28.3 42zM41.6 48.1v9.8l16.5-11-7.4-4.9zM39.5 34.5l-7.4 5 7.4 5 7.4-5z"/><path d="M39.5 0C17.7 0 0 17.7 0 39.5S17.7 79 39.5 79 79 61.3 79 39.5 61.3 0 39.5 0zm24.4 46.9V47.6c0 .1 0 .1-.1.2v.1s0 .1-.1.1c0 0 0 .1-.1.1l-.1.1s0 .1-.1.1l-.1.1-.1.1-.1.1s-.1 0-.1.1L40.7 63.6c-.4.2-.8.4-1.2.4-.4 0-.8-.1-1.2-.4L16 48.7s-.1 0-.1-.1l-.1-.1-.1-.1-.1-.1s0-.1-.1-.1l-.1-.1s0-.1-.1-.1c0 0 0-.1-.1-.1v-.1c0-.1 0-.1-.1-.2v-.1-.2-.1V32.1v-.3-.1-.2-.1c0-.1 0-.1.1-.2v-.1s0-.1.1-.1c0 0 0-.1.1-.1l.1-.1s0-.1.1-.1l.1-.1.1-.1.1-.1s.1 0 .1-.1l22.3-14.9c.7-.5 1.6-.5 2.3 0L63 30.3s.1 0 .1.1l.1.1.1.1.1.1s0 .1.1.1l.1.1s0 .1.1.1c0 0 0 .1.1.1v.1c0 .1 0 .1.1.2v15.5z"/><path d="M59.7 43v-7l-5.2 3.5z"/></symbol><symbol id="icon-github" viewBox="0 0 80.5 78.6"><path class="st0" d="M40.3 0C18 0 0 18 0 40.3c0 17.8 11.5 32.9 27.5 38.2 2 .4 2.7-.9 2.7-1.9 0-1 0-3.5-.1-6.8-11.2 2.4-13.6-5.4-13.6-5.4-1.8-4.7-4.5-5.9-4.5-5.9-3.7-2.5.3-2.4.3-2.4 4 .3 6.2 4.2 6.2 4.2 3.6 6.2 9.4 4.4 11.7 3.3.4-2.6 1.4-4.4 2.6-5.4-8.9-1-18.3-4.5-18.3-19.9 0-4.4 1.6-8 4.1-10.8-.4-1-1.8-5.1.4-10.7 0 0 3.4-1.1 11.1 4.1 3.2-.9 6.7-1.3 10.1-1.4 3.4 0 6.9.5 10.1 1.4 7.7-5.2 11.1-4.1 11.1-4.1 2.2 5.5.8 9.6.4 10.7 2.6 2.8 4.1 6.4 4.1 10.8C66 53.6 56.5 57 47.6 58c1.4 1.2 2.7 3.7 2.7 7.5v11c0 1.1.7 2.3 2.8 1.9 16-5.3 27.5-20.4 27.5-38.2C80.5 18 62.5 0 40.3 0z"/></symbol><symbol id="icon-instagram" viewBox="0 0 81.6 81.6"><path d="M60.3 26.8c-.4-1.1-1-1.9-1.8-2.8-.8-.8-1.7-1.4-2.8-1.8-.9-.3-2.1-.7-4.5-.8-2.6-.1-3.3-.1-9.9-.1-6.5 0-7.3 0-9.9.1-2.4.1-3.7.5-4.5.8-1.1.4-1.9 1-2.8 1.8-.8.8-1.4 1.7-1.8 2.8-.3.9-.7 2.1-.8 4.5-.1 2.6-.1 3.3-.1 9.9 0 6.5 0 7.3.1 9.9.1 2.4.5 3.7.8 4.5.4 1.1 1 1.9 1.8 2.8.8.8 1.7 1.4 2.8 1.8.9.3 2.1.7 4.5.8 2.6.1 3.3.1 9.9.1s7.3 0 9.9-.1c2.4-.1 3.7-.5 4.5-.8 1.1-.4 1.9-1 2.8-1.8.8-.8 1.4-1.7 1.8-2.8.3-.9.7-2.1.8-4.5.1-2.6.1-3.3.1-9.9 0-6.5 0-7.3-.1-9.9-.1-2.3-.5-3.6-.8-4.5zm-19.1 27c-6.9 0-12.5-5.6-12.5-12.5s5.6-12.5 12.5-12.5 12.5 5.6 12.5 12.5c.1 6.8-5.5 12.5-12.5 12.5zm13.1-22.7c-1.6 0-2.9-1.3-2.9-2.9 0-1.6 1.3-2.9 2.9-2.9 1.6 0 2.9 1.3 2.9 2.9 0 1.6-1.3 2.9-2.9 2.9z"/><circle cx="41.2" cy="41.2" r="8.1"/><path d="M40.8 0C18.3 0 0 18.3 0 40.8c0 22.5 18.3 40.8 40.8 40.8 22.5 0 40.8-18.3 40.8-40.8C81.6 18.3 63.3 0 40.8 0zm24.7 51.3c-.1 2.6-.5 4.4-1.1 5.9-.6 1.6-1.5 3-2.8 4.3-1.4 1.4-2.7 2.2-4.3 2.8-1.5.6-3.3 1-5.9 1.1-2.6.1-3.4.1-10.1.1s-7.5 0-10.1-.1c-2.6-.1-4.4-.5-5.9-1.1-1.6-.6-3-1.5-4.3-2.8-1.4-1.4-2.2-2.7-2.8-4.3-.6-1.5-1-3.3-1.1-5.9-.1-2.6-.1-3.4-.1-10.1 0-6.6 0-7.5.1-10.1.1-2.6.5-4.4 1.1-5.9.6-1.6 1.5-3 2.8-4.3 1.4-1.4 2.7-2.2 4.3-2.8 1.5-.6 3.3-1 5.9-1.1 2.6-.1 3.4-.1 10.1-.1 6.6 0 7.5 0 10.1.2 2.6.1 4.4.5 5.9 1.1 1.6.6 3 1.5 4.3 2.8 1.4 1.4 2.2 2.7 2.8 4.3.6 1.5 1 3.3 1.1 5.9.1 2.6.1 3.4.1 10.1 0 6.6 0 7.4-.1 10z"/></symbol><symbol id="icon-spotify" viewBox="0 0 80 80"><path d="M40 0C18 0 0 18 0 40s18 40 40 40 40-18 40-40S62.2 0 40 0zm18.4 57.8c-.8 1.2-2.2 1.6-3.4.8-9.4-5.8-21.2-7-35.2-3.8-1.4.4-2.6-.6-3-1.8-.4-1.4.6-2.6 1.8-3 15.2-3.4 28.4-2 38.8 4.4 1.4.6 1.6 2.2 1 3.4zm4.8-11c-1 1.4-2.8 2-4.2 1-10.8-6.6-27.2-8.6-39.8-4.6-1.6.4-3.4-.4-3.8-2-.4-1.6.4-3.4 2-3.8C32 33 50 35.2 62.4 42.8c1.2.6 1.8 2.6.8 4zm.4-11.2C50.8 28 29.4 27.2 17.2 31c-2 .6-4-.6-4.6-2.4-.6-2 .6-4 2.4-4.6 14.2-4.2 37.6-3.4 52.4 5.4 1.8 1 2.4 3.4 1.4 5.2-1 1.4-3.4 2-5.2 1z"/></symbol><symbol id="icon-strava" viewBox="0 0 78 78"><path class="st0" d="M39 0C17.5 0 0 17.5 0 39s17.5 39 39 39 39-17.5 39-39S60.5 0 39 0zM18.9 43.4l16.3-32.2 16.4 32.2h-9.8l-6.5-12.9-6.6 12.9h-9.8zm27.8 24.3L34.4 43.4h7.4l4.9 9.8 5-9.8H59L46.7 67.7z"/></symbol><symbol id="icon-twitter" viewBox="0 0 82.4 82.4"><path d="M41.2 0C18.4 0 0 18.4 0 41.2 0 64 18.4 82.4 41.2 82.4S82.4 64 82.4 41.2C82.4 18.4 64 0 41.2 0zm26.7 25.9c-1.4 2.1-3.2 4-5.3 5.5v1.4c0 13.9-10.6 30-30 30-6 0-11.5-1.7-16.2-4.7.8.1 1.7.2 2.5.2 5 0 9.5-1.7 13.1-4.5-4.6-.1-8.5-3.1-9.9-7.3.7.1 1.3.2 2 .2 1 0 1.9-.1 2.8-.4-4.8-1-8.5-5.2-8.5-10.3v-.1c1.4.8 3.1 1.3 4.8 1.3-2.8-1.9-4.7-5.1-4.7-8.8 0-1.9.5-3.7 1.4-5.3 5.2 6.4 13 10.6 21.7 11-.2-.8-.3-1.6-.3-2.4 0-5.8 4.7-10.5 10.5-10.5 3 0 5.8 1.3 7.7 3.3 2.4-.5 4.7-1.4 6.7-2.6-.8 2.5-2.5 4.5-4.6 5.8 2.4-.4 4.4-1 6.3-1.8z"/></symbol></svg>