<?xml version="1.0" encoding="utf-8"?>
<!-- Generator: Adobe Illustrator 21.0.0, SVG Export Plug-In . SVG Version: 6.00 Build 0)  -->
<svg version="1.1" id="Layer_1" xmlns="http://www.w3.org/2000/svg" xmlns:xlink="http://www.w3.org/1999/xlink" x="0px" y="0px"
	 viewBox="0 0 79 79" style="enable-background:new 0 0 79 79;" xml:space="preserve">
<g>
	<polygon points="19.3,36 19.3,43 24.5,39.5 	"/>
	<polygon points="37.4,30.9 37.4,21.1 21,32.1 28.3,37 	"/>
	<polygon points="58.1,32.1 41.6,21.1 41.6,30.9 50.7,37 	"/>
	<polygon points="21,46.9 37.4,57.9 37.4,48.1 28.3,42 	"/>
	<polygon points="41.6,48.1 41.6,57.9 58.1,46.9 50.7,42 	"/>
	<polygon points="39.5,34.5 32.1,39.5 39.5,44.5 46.9,39.5 	"/>
	<path d="M39.5,0C17.7,0,0,17.7,0,39.5C0,61.3,17.7,79,39.5,79C61.3,79,79,61.3,79,39.5C79,17.7,61.3,0,39.5,0z M63.9,46.9
		c0,0.1,0,0.2,0,0.3c0,0,0,0.1,0,0.1c0,0.1,0,0.1,0,0.2c0,0,0,0.1,0,0.1c0,0.1,0,0.1-0.1,0.2c0,0,0,0.1,0,0.1c0,0,0,0.1-0.1,0.1
		c0,0,0,0.1-0.1,0.1c0,0-0.1,0.1-0.1,0.1c0,0,0,0.1-0.1,0.1c0,0-0.1,0.1-0.1,0.1c0,0-0.1,0.1-0.1,0.1c0,0-0.1,0.1-0.1,0.1
		c0,0-0.1,0-0.1,0.1c0,0,0,0,0,0L40.7,63.6c-0.4,0.2-0.8,0.4-1.2,0.4c-0.4,0-0.8-0.1-1.2-0.4L16,48.7c0,0,0,0,0,0c0,0-0.1,0-0.1-0.1
		c0,0-0.1-0.1-0.1-0.1c0,0-0.1-0.1-0.1-0.1c0,0-0.1-0.1-0.1-0.1c0,0,0-0.1-0.1-0.1c0,0-0.1-0.1-0.1-0.1c0,0,0-0.1-0.1-0.1
		c0,0,0-0.1-0.1-0.1c0,0,0-0.1,0-0.1c0-0.1,0-0.1-0.1-0.2c0,0,0-0.1,0-0.1c0-0.1,0-0.1,0-0.2c0,0,0-0.1,0-0.1c0-0.1,0-0.2,0-0.3
		V32.1c0-0.1,0-0.2,0-0.3c0,0,0-0.1,0-0.1c0-0.1,0-0.1,0-0.2c0,0,0-0.1,0-0.1c0-0.1,0-0.1,0.1-0.2c0,0,0-0.1,0-0.1
		c0,0,0-0.1,0.1-0.1c0,0,0-0.1,0.1-0.1c0,0,0.1-0.1,0.1-0.1c0,0,0-0.1,0.1-0.1c0,0,0.1-0.1,0.1-0.1c0,0,0.1-0.1,0.1-0.1
		c0,0,0.1-0.1,0.1-0.1c0,0,0.1,0,0.1-0.1c0,0,0,0,0,0l22.3-14.9c0.7-0.5,1.6-0.5,2.3,0L63,30.3c0,0,0,0,0,0c0,0,0.1,0,0.1,0.1
		c0,0,0.1,0.1,0.1,0.1c0,0,0.1,0.1,0.1,0.1c0,0,0.1,0.1,0.1,0.1c0,0,0,0.1,0.1,0.1c0,0,0.1,0.1,0.1,0.1c0,0,0,0.1,0.1,0.1
		c0,0,0,0.1,0.1,0.1c0,0,0,0.1,0,0.1c0,0.1,0,0.1,0.1,0.2c0,0,0,0.1,0,0.1c0,0.1,0,0.1,0,0.2c0,0,0,0.1,0,0.1c0,0.1,0,0.2,0,0.3
		V46.9z"/>
	<polygon points="59.7,43 59.7,36 54.5,39.5 	"/>
</g>
</svg>
