<?xml version="1.0" encoding="utf-8"?>
<!-- Generator: Adobe Illustrator 21.0.0, SVG Export Plug-In . SVG Version: 6.00 Build 0)  -->
<svg version="1.1" id="Layer_1" xmlns="http://www.w3.org/2000/svg" xmlns:xlink="http://www.w3.org/1999/xlink" x="0px" y="0px"
	 viewBox="0 0 80.5 78.6" style="enable-background:new 0 0 80.5 78.6;" xml:space="preserve">
<style type="text/css">
	.st0{fill-rule:evenodd;clip-rule:evenodd;fill:#181616;}
</style>
<path class="st0" d="M40.3,0C18,0,0,18,0,40.3c0,17.8,11.5,32.9,27.5,38.2c2,0.4,2.7-0.9,2.7-1.9c0-1,0-3.5-0.1-6.8
	c-11.2,2.4-13.6-5.4-13.6-5.4c-1.8-4.7-4.5-5.9-4.5-5.9c-3.7-2.5,0.3-2.4,0.3-2.4c4,0.3,6.2,4.2,6.2,4.2c3.6,6.2,9.4,4.4,11.7,3.3
	c0.4-2.6,1.4-4.4,2.6-5.4c-8.9-1-18.3-4.5-18.3-19.9c0-4.4,1.6-8,4.1-10.8c-0.4-1-1.8-5.1,0.4-10.7c0,0,3.4-1.1,11.1,4.1
	c3.2-0.9,6.7-1.3,10.1-1.4c3.4,0,6.9,0.5,10.1,1.4c7.7-5.2,11.1-4.1,11.1-4.1c2.2,5.5,0.8,9.6,0.4,10.7c2.6,2.8,4.1,6.4,4.1,10.8
	C66,53.6,56.5,57,47.6,58c1.4,1.2,2.7,3.7,2.7,7.5c0,5.4,0,9.7,0,11c0,1.1,0.7,2.3,2.8,1.9c16-5.3,27.5-20.4,27.5-38.2
	C80.5,18,62.5,0,40.3,0z"/>
</svg>
