<?xml version="1.0" encoding="utf-8"?>
<!-- Generator: Adobe Illustrator 21.0.0, SVG Export Plug-In . SVG Version: 6.00 Build 0)  -->
<svg version="1.1" id="Layer_1" xmlns="http://www.w3.org/2000/svg" xmlns:xlink="http://www.w3.org/1999/xlink" x="0px" y="0px"
	 viewBox="0 0 81.6 81.6" style="enable-background:new 0 0 81.6 81.6;" xml:space="preserve">
<g>
	<path d="M60.3,26.8c-0.4-1.1-1-1.9-1.8-2.8c-0.8-0.8-1.7-1.4-2.8-1.8c-0.9-0.3-2.1-0.7-4.5-0.8c-2.6-0.1-3.3-0.1-9.9-0.1h0
		c-6.5,0-7.3,0-9.9,0.1c-2.4,0.1-3.7,0.5-4.5,0.8c-1.1,0.4-1.9,1-2.8,1.8c-0.8,0.8-1.4,1.7-1.8,2.8c-0.3,0.9-0.7,2.1-0.8,4.5
		c-0.1,2.6-0.1,3.3-0.1,9.9c0,6.5,0,7.3,0.1,9.9c0.1,2.4,0.5,3.7,0.8,4.5c0.4,1.1,1,1.9,1.8,2.8c0.8,0.8,1.7,1.4,2.8,1.8
		c0.9,0.3,2.1,0.7,4.5,0.8c2.6,0.1,3.3,0.1,9.9,0.1s7.3,0,9.9-0.1c2.4-0.1,3.7-0.5,4.5-0.8c1.1-0.4,1.9-1,2.8-1.8
		c0.8-0.8,1.4-1.7,1.8-2.8c0.3-0.9,0.7-2.1,0.8-4.5c0.1-2.6,0.1-3.3,0.1-9.9c0-6.5,0-7.3-0.1-9.9C61,29,60.6,27.7,60.3,26.8z
		 M41.2,53.8c-6.9,0-12.5-5.6-12.5-12.5s5.6-12.5,12.5-12.5c6.9,0,12.5,5.6,12.5,12.5C53.8,48.1,48.2,53.8,41.2,53.8z M54.3,31.1
		c-1.6,0-2.9-1.3-2.9-2.9c0-1.6,1.3-2.9,2.9-2.9c1.6,0,2.9,1.3,2.9,2.9C57.2,29.8,55.9,31.1,54.3,31.1z"/>
	<circle cx="41.2" cy="41.2" r="8.1"/>
	<path d="M40.8,0C18.3,0,0,18.3,0,40.8c0,22.5,18.3,40.8,40.8,40.8c22.5,0,40.8-18.3,40.8-40.8C81.6,18.3,63.3,0,40.8,0z M65.5,51.3
		c-0.1,2.6-0.5,4.4-1.1,5.9c-0.6,1.6-1.5,3-2.8,4.3c-1.4,1.4-2.7,2.2-4.3,2.8c-1.5,0.6-3.3,1-5.9,1.1c-2.6,0.1-3.4,0.1-10.1,0.1
		s-7.5,0-10.1-0.1c-2.6-0.1-4.4-0.5-5.9-1.1c-1.6-0.6-3-1.5-4.3-2.8c-1.4-1.4-2.2-2.7-2.8-4.3c-0.6-1.5-1-3.3-1.1-5.9
		c-0.1-2.6-0.1-3.4-0.1-10.1c0-6.6,0-7.5,0.1-10.1c0.1-2.6,0.5-4.4,1.1-5.9c0.6-1.6,1.5-3,2.8-4.3c1.4-1.4,2.7-2.2,4.3-2.8
		c1.5-0.6,3.3-1,5.9-1.1c2.6-0.1,3.4-0.1,10.1-0.1l0,0c6.6,0,7.5,0,10.1,0.2c2.6,0.1,4.4,0.5,5.9,1.1c1.6,0.6,3,1.5,4.3,2.8
		c1.4,1.4,2.2,2.7,2.8,4.3c0.6,1.5,1,3.3,1.1,5.9c0.1,2.6,0.1,3.4,0.1,10.1C65.6,47.9,65.6,48.7,65.5,51.3z"/>
</g>
</svg>
