<?xml version="1.0" encoding="utf-8"?>
<!-- Generator: Adobe Illustrator 21.0.0, SVG Export Plug-In . SVG Version: 6.00 Build 0)  -->
<svg version="1.1" id="Layer_1" xmlns="http://www.w3.org/2000/svg" xmlns:xlink="http://www.w3.org/1999/xlink" x="0px" y="0px"
	 viewBox="0 0 80 80" style="enable-background:new 0 0 80 80;" xml:space="preserve">
<path d="M40,0C18,0,0,18,0,40s18,40,40,40s40-18,40-40S62.2,0,40,0z M58.4,57.8c-0.8,1.2-2.2,1.6-3.4,0.8c-9.4-5.8-21.2-7-35.2-3.8
	c-1.4,0.4-2.6-0.6-3-1.8c-0.4-1.4,0.6-2.6,1.8-3c15.2-3.4,28.4-2,38.8,4.4C58.8,55,59,56.6,58.4,57.8L58.4,57.8z M63.2,46.8
	c-1,1.4-2.8,2-4.2,1c-10.8-6.6-27.2-8.6-39.8-4.6c-1.6,0.4-3.4-0.4-3.8-2c-0.4-1.6,0.4-3.4,2-3.8C32,33,50,35.2,62.4,42.8
	C63.6,43.4,64.2,45.4,63.2,46.8L63.2,46.8z M63.6,35.6C50.8,28,29.4,27.2,17.2,31c-2,0.6-4-0.6-4.6-2.4c-0.6-2,0.6-4,2.4-4.6
	c14.2-4.2,37.6-3.4,52.4,5.4c1.8,1,2.4,3.4,1.4,5.2C67.8,36,65.4,36.6,63.6,35.6L63.6,35.6z"/>
</svg>
