<?xml version="1.0" encoding="utf-8"?>
<!-- Generator: Adobe Illustrator 21.0.0, SVG Export Plug-In . SVG Version: 6.00 Build 0)  -->
<svg version="1.1" id="Layer_1" xmlns="http://www.w3.org/2000/svg" xmlns:xlink="http://www.w3.org/1999/xlink" x="0px" y="0px"
	 viewBox="0 0 82.4 82.4" style="enable-background:new 0 0 82.4 82.4;" xml:space="preserve">
<path d="M41.2,0C18.4,0,0,18.4,0,41.2C0,64,18.4,82.4,41.2,82.4S82.4,64,82.4,41.2C82.4,18.4,64,0,41.2,0z M67.9,25.9
	c-1.4,2.1-3.2,4-5.3,5.5c0,0.5,0,0.9,0,1.4c0,13.9-10.6,30-30,30c-6,0-11.5-1.7-16.2-4.7c0.8,0.1,1.7,0.2,2.5,0.2
	c5,0,9.5-1.7,13.1-4.5c-4.6-0.1-8.5-3.1-9.9-7.3c0.7,0.1,1.3,0.2,2,0.2c1,0,1.9-0.1,2.8-0.4c-4.8-1-8.5-5.2-8.5-10.3
	c0,0,0-0.1,0-0.1c1.4,0.8,3.1,1.3,4.8,1.3c-2.8-1.9-4.7-5.1-4.7-8.8c0-1.9,0.5-3.7,1.4-5.3c5.2,6.4,13,10.6,21.7,11
	c-0.2-0.8-0.3-1.6-0.3-2.4c0-5.8,4.7-10.5,10.5-10.5c3,0,5.8,1.3,7.7,3.3c2.4-0.5,4.7-1.4,6.7-2.6c-0.8,2.5-2.5,4.5-4.6,5.8
	C64,27.3,66,26.7,67.9,25.9L67.9,25.9z"/>
</svg>
