<svg width="46" height="28" viewBox="0 0 46 28" fill="none" xmlns="http://www.w3.org/2000/svg">
<path d="M44.9267 3.06249C44.4053 2.40624 43.654 1.86666 42.688 1.45833C41.6607 1.02083 40.572 0.758326 39.376 0.583326C38.1953 0.437493 36.9227 0.364576 35.5427 0.364576C33.212 0.364576 31.188 0.597909 29.4553 1.09374C27.738 1.56041 26.312 2.18749 25.162 2.98958L25.0087 3.10624L24.0887 2.15833L23.782 1.91041C23.046 1.35624 22.0953 0.889576 20.9453 0.568743C19.7187 0.20416 18.2773 0.0291595 16.652 0.0291595C14.398 0.0291595 12.2667 0.466659 10.2427 1.38541C8.20333 2.27499 6.44 3.49999 4.90667 5.06041C3.43467 6.63541 2.254 8.45833 1.34933 10.5437C0.46 12.6146 0 14.8458 0 17.2083C0 20.2708 0.797333 22.7208 2.40733 24.5C4.01733 26.25 6.394 27.125 9.568 27.125C10.5953 27.125 11.5153 27.0083 12.374 26.7604C13.2173 26.5125 14.03 26.1771 14.7967 25.8125C15.6707 25.375 16.3913 24.9375 16.974 24.5C17.434 24.1646 17.94 23.7708 18.4613 23.3333C18.5227 23.5229 18.6147 23.7125 18.7067 23.8875C19.0133 24.5146 19.6267 25.1125 20.5467 25.6667C21.4053 26.2208 22.6013 26.6875 24.104 27.0375C25.6067 27.3875 27.508 27.5771 29.808 27.5771C32.338 27.5771 34.408 27.3729 36.064 26.95C37.7047 26.5125 39.1307 25.9 40.4033 25.0542C41.538 24.325 42.3967 23.3479 43.01 22.2104C43.6233 21.0729 43.93 19.8771 43.93 18.6229C43.93 16.7271 43.3167 15.1812 42.044 14.0292C40.7867 12.8625 38.916 11.8854 36.4473 11.0542C35.374 10.7042 34.454 10.3979 33.7487 10.1354C33.0433 9.87291 32.4453 9.58124 31.97 9.26041C31.556 8.96874 31.2033 8.63332 30.9733 8.23957L30.8813 8.09374L30.8047 7.90416C30.6513 7.52499 30.5747 7.05832 30.5747 6.50416C30.5747 6.35832 30.5747 6.18332 30.6053 6.03749C30.6053 5.93541 30.636 5.81874 30.6667 5.71666C30.7433 5.45416 30.82 5.20624 30.9273 4.98749C31.188 4.40416 31.602 3.92291 32.154 3.48541C33.2273 2.66874 34.3773 2.23124 35.65 2.17291L36.2633 4.09791C36.5393 4.85624 36.8767 5.61457 37.3367 6.34374C37.7507 7.07291 38.3333 7.65624 39.0233 8.19582C39.7287 8.73541 40.6027 8.99791 41.6607 8.99791C42.8873 8.99791 43.8687 8.66249 44.62 7.97707C45.3867 7.29166 45.7547 6.47499 45.7547 5.52707C45.7547 4.57916 45.4787 3.77708 44.942 3.10624L44.9267 3.06249ZM22.448 6.56249C22.1413 7.20416 22.1413 7.51041 21.988 8.16666L18.998 19.9792C18.8447 20.4167 18.6913 20.7667 18.3847 21.1458C17.8173 21.6562 17.2193 22.1083 16.5753 22.4875C15.778 22.9687 14.95 23.2167 14.0913 23.2167C13.248 23.2167 12.558 23.0708 11.9907 22.7792C11.454 22.4875 11.0093 22.05 10.672 21.525C10.3653 21.0292 10.1353 20.4167 9.99733 19.6875C9.844 18.9583 9.798 18.1708 9.798 17.325C9.798 15.4583 10.0127 13.6208 10.4573 11.8417C10.9173 10.0479 11.5 8.48749 12.2667 7.13124C13.0333 5.74582 13.9533 4.65207 14.9653 3.83541C15.9467 3.03333 17.0507 2.62499 18.2467 2.62499C19.044 2.62499 19.7033 2.72708 20.24 2.96041C20.746 3.19374 21.16 3.54374 21.5127 3.98124C21.7887 4.34583 22.08 4.78332 22.1873 5.29374C22.2793 5.78957 22.4327 6.19791 22.4327 6.56249H22.448ZM32.5987 17.325C34.6993 17.8208 35.972 19.8771 35.4353 21.9333C35.19 22.9104 34.5767 23.7125 33.7487 24.2229C33.442 24.4417 33.1047 24.6021 32.7367 24.7187C32.0927 24.9229 31.3567 24.9521 30.6667 24.7917C28.5507 24.2812 27.2933 22.225 27.8147 20.1687L28.428 17.8062C28.52 17.4417 28.5813 17.0771 28.6733 16.7854L28.7653 16.4062L28.98 16.4792C29.0413 16.4792 28.704 16.3771 28.7653 16.3917L32.5987 17.325Z" fill="#FEFEFE"/>
</svg>
