<svg width="40" height="24" fill="none" xmlns="http://www.w3.org/2000/svg"><g clip-path="url(#clip0)"><path d="M38.5086 2.62499c-.4469-.5625-1.0909-1.025-1.9189-1.375-.8806-.374996-1.8137-.599996-2.8388-.749996-1.012-.125-2.1029-.1875-3.2858-.1875-1.9977 0-3.7325.2-5.2177.625-1.472.399996-2.6943.937496-3.68 1.624996l-.1314.1-.7886-.8125-.2628-.2125c-.6309-.475-1.4457-.874996-2.4315-1.149996-1.0514-.3125-2.2868-.4625001-3.68-.4625001-1.932 0-3.7588.3750001-5.49367 1.1624961-1.748.7625-3.25943 1.8125-4.57372 3.15-1.26171 1.35-2.27371 2.9125-3.04914 4.7C.394286 10.8125 0 12.725 0 14.75c0 2.625.683429 4.725 2.06343 6.25 1.38 1.5 3.41714 2.25 6.13771 2.25.88058 0 1.66915-.1 2.40516-.3125.7228-.2125 1.4194-.5 2.0766-.8125.7491-.375 1.3668-.75 1.8662-1.125.3943-.2875.828-.625 1.2749-1 .0526.1625.1314.325.2103.475.2628.5375.7886 1.05 1.5771 1.525.736.475 1.7612.875 3.0492 1.175 1.288.3 2.9177.4625 4.8891.4625 2.1686 0 3.9429-.175 5.3623-.5375 1.4063-.375 2.6286-.9 3.7194-1.625.9726-.625 1.7086-1.4625 2.2343-2.4375.5257-.975.7886-2 .7886-3.075 0-1.625-.5257-2.95-1.6166-3.9375-1.0777-1-2.6811-1.8375-4.7971-2.55001-.92-.3-1.7086-.5625-2.3132-.7875-.6045-.225-1.1171-.475-1.5245-.75-.3549-.25-.6572-.5375-.8543-.875l-.0789-.125-.0657-.1625c-.1314-.325-.1971-.725-.1971-1.2 0-.125 0-.275.0262-.4 0-.0875.0263-.1875.0526-.275.0657-.225.1314-.4375.2234-.625.2235-.5.5783-.9125 1.0515-1.2875.92-.7 1.9057-1.075 2.9965-1.125l.5258 1.65c.2365.65.5257 1.3.92 1.925.3548.625.8542 1.125 1.4457 1.5875.6045.4625 1.3537.6875 2.2605.6875 1.0515 0 1.8926-.2875 2.5366-.875.6572-.5875.9726-1.2875.9726-2.1s-.2366-1.5-.6966-2.075l-.0131-.0375zm-19.2675 3c-.2628.55-.2628.8125-.3942 1.375L16.284 17.125c-.1314.375-.2629.675-.5257 1-.4863.4375-.9989.825-1.5509 1.15-.6834.4125-1.3931.625-2.1291.625-.7229 0-1.3143-.125-1.8006-.375-.45999-.25-.84113-.625-1.13027-1.075-.26286-.425-.46-.95-.57829-1.575-.13143-.625-.17085-1.3-.17085-2.025 0-1.6.184-3.175.56514-4.7.39428-1.53751.89371-2.87501 1.55087-4.03751.6571-1.1875 1.4457-2.125 2.3131-2.825.8412-.6875 1.7875-1.0375 2.8126-1.0375.6834 0 1.2486.0875 1.7086.2875.4337.2.7885.5 1.0908.875.2366.3125.4863.6875.5783 1.125.0789.425.2103.775.2103 1.0875h.0131zM27.9417 14.85c1.8006.425 2.8914 2.1875 2.4314 3.95-.2102.8375-.736 1.525-1.4457 1.9625-.2628.1875-.552.325-.8674.425-.552.175-1.1829.2-1.7743.0625-1.8137-.4375-2.8914-2.2-2.4446-3.9625l.5258-2.025c.0788-.3125.1314-.625.2102-.875l.0789-.325.184.0625c.0526 0-.2366-.0875-.184-.075l3.2857.8z" fill="#FEFEFE"/></g><defs><clipPath id="clip0"><path fill="#fff" d="M0 0h39.4286v24H0z"/></clipPath></defs></svg>